# xmcd
#
# Track frame offsets: 
#        150
#        23109
#        41387
#        58819
#
# Disc length: 1058 seconds
#
# Revision: 1
# Processed by: cddbd v1.5.2PL0 Copyright (c) Steve Scherf et al.
# Submitted via: ExactAudioCopy v1.3
#
DISCID=2b042004
DTITLE=Brings - Kölsche Jung (Maxi)
DYEAR=2013
DGENRE=rock
TTITLE0=Kölsche Jung
TTITLE1=Kölsche Jung (Party Edit)
TTITLE2=Kölsche Jung (Radio Edit)
TTITLE3=Kölsche Jung (Karaoke Edit)
EXTD=
EXTT0=
EXTT1=
EXTT2=
EXTT3=
PLAYORDER=
